<?xml version="1.0" encoding="UTF-8"?>
<svg width="30px" height="31px" viewBox="0 0 30 31" version="1.1" xmlns="http://www.w3.org/2000/svg" xmlns:xlink="http://www.w3.org/1999/xlink">
    <!-- Generator: Sketch 43.2 (39069) - http://www.bohemiancoding.com/sketch -->
    <title>H_red</title>
    <desc>Created with Sketch.</desc>
    <defs>
        <polygon id="path-1" points="0.00504201681 30.2790698 29.9953782 30.2790698 29.9953782 0.0207217098 0.00504201681 0.0207217098"></polygon>
    </defs>
    <g id="Symbols" stroke="none" stroke-width="1" fill="none" fill-rule="evenodd">
        <g id="Header" transform="translate(-196.000000, -15.000000)">
            <g id="Small-Header" transform="translate(-96.000000, 0.000000)">
                <g id="H_red" transform="translate(292.000000, 15.000000)">
                    <mask id="mask-2" fill="white">
                        <use xlink:href="#path-1"></use>
                    </mask>
                    <g id="Clip-2"></g>
                    <path d="M8.9305042,22.0238789 C8.44731092,24.4152488 7.49,26.702841 5.77605042,26.702841 C4.47235294,26.702841 3.59184874,25.6515314 3.59184874,23.7663633 C3.59184874,20.0625902 6.59571429,18.3376136 9.54042017,17.1510631 C9.44151261,18.8855971 9.17008403,20.8381742 8.9305042,22.0238789 Z M24.3983193,24.3975719 C23.6890756,21.7413025 23.8614286,16.920587 24.139916,13.4529569 C26.217563,13.0826726 27.7262185,12.8700425 28.4544538,12.6942886 C29.5736134,12.4238068 29.9953782,11.4345778 29.9953782,10.2113203 C29.9953782,9.85693673 29.8495798,9.09970625 29.6105042,8.84301078 C28.0226891,9.0513274 26.2651261,9.35479473 24.5118487,9.65682422 C24.8582353,6.51372145 25.3246218,2.85756606 25.4852101,1.54998389 C25.5918487,0.682547746 25.5093277,0.137778225 24.6162185,0.0310402754 C24.1085714,-0.0295178641 22.6039496,0.192415876 22.1257143,0.271412109 C21.3390756,0.401239964 21.0397479,1.0760065 20.9398319,1.60183045 C20.5596639,3.60819943 20.1967227,6.87926933 19.9404202,10.4626873 C18.127395,10.8221455 16.0178151,11.2896104 14.265042,11.7481099 C14.4264706,8.79886085 14.562521,5.81459634 14.4608403,4.17292945 C14.3115126,1.77039522 12.7068908,0.193346239 10.607479,0.193346239 C7.92672269,0.193346239 5.93243697,1.09748941 4.31277311,2.47467962 C3.25411765,3.37543965 2.63848739,4.40458971 2.63848739,5.22956749 C2.63848739,6.07205301 3.33294118,7.15406457 4.44,7.15406457 C5.29672269,5.97554905 7.55478992,3.9326422 8.68403361,3.9326422 C9.8105042,3.9326422 10.0444538,4.73114694 10.0444538,5.73424685 C10.0444538,6.52336339 9.89319328,10.0864825 9.73966387,13.184505 C4.49890756,15.3820212 0,17.8663427 0,23.9414406 C0,27.6727862 2.20260504,30.2498056 5.77722689,30.2498056 C10.0197479,30.2498056 12.6266387,26.574451 13.3212605,22.3463764 C13.6651261,20.25323 13.9588235,17.9763792 14.0496639,15.6713639 C15.8305042,15.2026304 17.9353782,14.7251853 19.7094118,14.3391694 C19.4663025,19.234483 19.3905042,24.2612315 20.479916,26.8559279 C21.3265546,28.872108 22.9988235,30.2790698 25.6510924,30.2790698 C27.3118487,30.2790698 28.6486555,29.7501164 29.4044538,29.0019358 C29.7462185,28.663453 29.9086555,28.1195293 29.9086555,27.6969756 C29.9086555,27.0528264 29.5456303,26.4365036 29.0193277,26.0823738 C28.412437,26.4285532 27.5757143,26.6418599 26.899916,26.6418599 C25.4915966,26.6418599 24.747563,25.7057461 24.3983193,24.3975719 L24.3983193,24.3975719 Z" id="Fill-1" fill="#FFFFFF" mask="url(#mask-2)"></path>
                </g>
            </g>
        </g>
    </g>
</svg>